<svg xmlns="http://www.w3.org/2000/svg" xmlns:xlink="http://www.w3.org/1999/xlink" width="100" zoomAndPan="magnify" viewBox="0 0 75 74.999997" height="100" preserveAspectRatio="xMidYMid meet" version="1.0"><defs><clipPath id="0480be281b"><path d="M 4.726562 4.726562 L 69.976562 4.726562 L 69.976562 69.976562 L 4.726562 69.976562 Z M 4.726562 4.726562 " clip-rule="nonzero"/></clipPath></defs><g clip-path="url(#0480be281b)"><path fill="#0277b5" d="M 64.523438 4.726562 L 10.207031 4.726562 C 7.207031 4.726562 4.789062 7.171875 4.789062 10.144531 L 4.789062 64.554688 C 4.789062 67.558594 7.238281 69.976562 10.207031 69.976562 L 64.492188 69.976562 C 67.496094 69.976562 69.910156 67.527344 69.910156 64.554688 L 69.910156 10.144531 C 69.941406 7.171875 67.527344 4.726562 64.523438 4.726562 Z M 24.082031 58.550781 L 14.453125 58.550781 L 14.453125 29.628906 L 24.082031 29.628906 Z M 19.25 26.136719 C 16.214844 26.136719 13.765625 23.691406 13.765625 20.652344 C 13.765625 17.617188 16.214844 15.171875 19.25 15.171875 C 22.285156 15.171875 24.734375 17.617188 24.734375 20.652344 C 24.734375 23.691406 22.285156 26.136719 19.25 26.136719 Z M 60.3125 58.550781 L 50.652344 58.550781 L 50.421875 41.382812 C 50.421875 41.382812 50.652344 36.8125 45.65625 36.84375 C 40.664062 36.875 39.976562 41.382812 39.976562 41.382812 L 39.976562 58.550781 L 30.25 58.550781 L 30.25 29.628906 L 39.585938 29.628906 L 39.585938 33.613281 C 39.585938 33.613281 39.976562 32.308594 42.132812 30.773438 C 44.285156 29.238281 47.84375 28.914062 49.378906 28.976562 C 50.914062 29.042969 53 28.78125 56.492188 31.195312 C 60.246094 33.777344 60.347656 40.53125 60.347656 40.53125 Z M 60.3125 58.550781 " fill-opacity="1" fill-rule="nonzero"/></g></svg>