<svg id="svg" version="1.1" xmlns="http://www.w3.org/2000/svg" xmlns:xlink="http://www.w3.org/1999/xlink" width="400" height="125.56306306306305" viewBox="0, 0, 400,125.56306306306305"><g id="svgg"><path id="path0" d="M72.000 23.267 C 71.679 23.305,70.779 23.413,70.000 23.507 C 57.069 25.056,45.513 33.165,39.636 44.811 C 38.079 47.896,37.959 47.667,41.125 47.666 L 43.750 47.666 44.417 46.381 C 46.423 42.515,50.298 38.026,54.120 35.140 C 56.302 33.493,56.329 33.485,57.289 34.278 C 57.715 34.629,58.266 35.067,58.515 35.250 C 58.763 35.433,60.072 36.446,61.424 37.500 C 62.775 38.554,64.451 39.852,65.148 40.385 C 66.569 41.469,66.489 41.187,66.081 43.667 C 65.953 44.446,65.800 45.608,65.741 46.250 C 65.682 46.892,65.599 47.473,65.557 47.542 C 65.515 47.610,67.021 47.667,68.905 47.667 L 72.329 47.667 72.437 46.996 C 72.553 46.269,72.916 46.207,73.521 46.812 C 74.419 47.710,74.101 47.667,79.835 47.667 C 82.768 47.667,85.167 47.621,85.167 47.566 C 85.167 47.455,84.863 47.204,83.074 45.833 C 82.415 45.329,80.352 43.717,78.488 42.250 C 76.624 40.783,74.899 39.433,74.654 39.250 C 74.410 39.067,73.544 38.383,72.730 37.730 C 71.139 36.455,70.018 35.577,65.845 32.340 C 64.163 31.035,63.245 30.221,63.375 30.150 C 63.916 29.857,67.474 28.971,69.417 28.646 C 83.492 26.294,98.464 33.596,105.170 46.083 C 106.078 47.774,105.820 47.661,108.792 47.664 C 111.365 47.667,111.484 47.636,111.191 47.039 C 111.113 46.880,110.647 45.932,110.156 44.933 C 104.582 33.593,93.292 25.468,80.500 23.589 C 78.681 23.322,73.251 23.116,72.000 23.267 " stroke="none" fill="#874db3" fill-rule="evenodd"></path><path id="path1" d="M35.432 65.750 C 36.010 72.464,38.265 79.236,41.519 84.028 L 42.179 85.000 45.173 85.000 C 48.367 85.000,48.413 84.985,47.733 84.176 C 44.372 80.183,41.305 72.960,40.663 67.530 C 40.348 64.863,40.699 65.167,37.927 65.167 C 36.167 65.167,35.504 65.111,35.437 64.958 C 35.387 64.844,35.385 65.200,35.432 65.750 M82.792 65.125 C 82.631 65.161,82.500 65.261,82.500 65.346 C 82.500 65.430,82.444 65.488,82.375 65.474 C 82.241 65.445,81.794 65.597,81.243 65.858 C 81.056 65.947,80.793 66.041,80.660 66.068 C 80.526 66.095,80.267 66.176,80.083 66.249 C 79.900 66.321,78.887 66.714,77.833 67.120 C 76.779 67.527,75.767 67.926,75.583 68.008 C 75.400 68.090,72.850 69.101,69.917 70.256 C 66.983 71.411,63.871 72.638,63.000 72.982 C 61.066 73.747,61.171 74.012,61.732 69.782 C 61.966 68.023,62.187 66.265,62.223 65.875 L 62.290 65.167 58.978 65.167 C 55.941 65.167,55.666 65.191,55.653 65.458 C 55.645 65.619,55.612 65.900,55.579 66.083 C 55.547 66.267,55.220 68.517,54.853 71.083 C 54.486 73.650,54.000 76.987,53.773 78.500 C 53.546 80.012,53.274 81.962,53.168 82.833 C 53.062 83.704,52.952 84.567,52.923 84.750 C 52.872 85.074,52.964 85.083,56.269 85.083 C 58.406 85.083,59.676 85.021,59.692 84.917 C 59.706 84.825,59.730 84.675,59.746 84.583 C 59.762 84.492,59.871 83.739,59.989 82.911 L 60.204 81.404 62.810 80.372 C 64.244 79.805,68.492 78.099,72.250 76.583 C 76.008 75.067,81.258 72.957,83.917 71.895 C 86.575 70.833,88.813 69.905,88.890 69.834 C 89.000 69.731,87.751 68.586,86.747 67.871 C 86.654 67.804,86.155 67.394,85.637 66.958 C 85.120 66.523,84.623 66.167,84.533 66.167 C 84.443 66.167,84.326 66.054,84.273 65.917 C 84.220 65.779,84.062 65.667,83.922 65.667 C 83.782 65.667,83.667 65.594,83.667 65.506 C 83.667 65.277,83.137 65.046,82.792 65.125 M89.695 65.127 L 84.307 65.171 85.945 66.443 C 87.791 67.876,89.824 69.497,90.101 69.755 C 90.230 69.876,89.584 70.210,87.934 70.875 C 86.641 71.396,84.571 72.241,83.333 72.752 C 82.096 73.263,80.221 74.026,79.167 74.448 C 76.724 75.427,76.783 75.333,78.009 76.277 C 78.585 76.721,79.710 77.608,80.509 78.250 C 81.307 78.892,82.166 79.580,82.418 79.780 C 82.752 80.044,82.971 80.105,83.229 80.005 C 84.374 79.563,98.336 73.927,98.750 73.741 C 100.411 72.993,108.545 69.823,108.617 69.895 C 109.456 70.734,104.776 80.852,102.044 84.107 C 101.747 84.461,101.503 84.806,101.502 84.875 C 101.501 84.944,102.813 85.000,104.417 85.000 C 106.487 85.000,107.333 85.055,107.333 85.190 C 107.333 85.809,110.448 80.361,111.268 78.307 C 111.845 76.861,112.685 74.524,112.845 73.917 C 113.717 70.610,114.038 68.914,114.257 66.458 L 114.372 65.167 108.057 65.167 C 103.144 65.167,101.668 65.215,101.412 65.384 C 101.231 65.504,100.521 65.808,99.833 66.061 C 99.146 66.314,98.355 66.621,98.075 66.742 C 97.602 66.947,97.527 66.929,96.992 66.486 C 96.675 66.224,96.321 66.007,96.203 66.004 C 96.086 66.002,95.946 65.887,95.894 65.750 C 95.841 65.612,95.720 65.500,95.626 65.500 C 95.531 65.500,95.370 65.406,95.268 65.292 C 95.126 65.131,93.841 65.093,89.695 65.127 M62.996 65.594 C 62.906 65.829,62.833 66.157,62.833 66.323 C 62.833 66.488,62.688 67.477,62.510 68.520 C 62.126 70.775,61.950 72.167,62.050 72.167 C 62.166 72.167,66.777 70.400,68.599 69.657 C 69.096 69.454,69.120 69.396,69.313 67.932 C 69.423 67.098,69.557 66.135,69.611 65.792 L 69.709 65.167 66.434 65.167 L 63.158 65.167 62.996 65.594 " stroke="none" fill="#6f65b4" fill-rule="evenodd"></path><path id="path2" d="M38.197 47.868 C 36.561 52.054,35.303 57.742,35.484 60.129 C 35.496 60.294,36.053 60.332,37.936 60.296 L 40.372 60.250 40.422 59.494 C 40.620 56.529,42.350 50.142,43.501 48.127 C 43.592 47.968,43.667 47.799,43.667 47.752 C 43.667 47.705,42.510 47.667,41.097 47.667 C 39.461 47.667,38.507 47.603,38.470 47.493 C 38.438 47.397,38.315 47.566,38.197 47.868 M106.000 47.609 C 106.000 47.624,106.229 48.145,106.508 48.768 C 107.837 51.729,109.406 57.856,109.374 59.958 C 109.366 60.478,114.262 60.561,114.298 60.042 C 114.445 57.966,112.321 48.622,111.644 48.361 C 111.565 48.331,111.500 48.165,111.500 47.994 C 111.500 47.704,111.308 47.679,108.750 47.633 C 107.237 47.606,106.000 47.595,106.000 47.609 M65.450 48.292 C 64.821 52.481,63.999 58.260,63.938 58.917 C 63.896 59.375,63.809 59.883,63.745 60.045 C 63.635 60.323,63.831 60.338,67.009 60.295 C 70.243 60.252,70.392 60.236,70.441 59.917 C 70.470 59.733,70.642 58.683,70.824 57.583 C 71.192 55.360,71.535 53.129,71.914 50.500 C 72.052 49.538,72.207 48.506,72.257 48.208 L 72.348 47.667 68.946 47.667 L 65.544 47.667 65.450 48.292 M75.857 48.651 C 76.532 49.193,78.171 50.482,79.500 51.517 C 84.276 55.234,84.066 55.101,84.133 54.458 C 84.154 54.252,84.382 52.640,84.640 50.875 L 85.109 47.667 79.870 47.667 L 74.631 47.667 75.857 48.651 M72.931 48.042 C 72.717 48.797,71.856 55.253,71.958 55.341 C 72.027 55.400,73.246 56.367,74.667 57.489 C 76.087 58.611,77.475 59.709,77.750 59.928 L 78.250 60.327 83.542 60.330 C 86.960 60.332,88.833 60.274,88.833 60.167 C 88.833 60.075,88.748 60.000,88.644 60.000 C 88.540 60.000,88.278 59.809,88.061 59.575 C 87.844 59.341,87.667 59.205,87.667 59.273 C 87.667 59.341,87.573 59.272,87.458 59.120 C 87.344 58.968,86.827 58.522,86.310 58.130 C 85.793 57.738,83.512 55.954,81.241 54.167 C 72.590 47.358,73.032 47.684,72.931 48.042 M62.867 59.533 C 62.757 59.643,62.667 59.682,62.667 59.619 C 62.667 59.557,62.385 59.646,62.042 59.819 C 61.698 59.991,61.304 60.172,61.167 60.220 C 61.029 60.268,61.385 60.313,61.958 60.320 C 62.531 60.327,63.006 60.277,63.012 60.208 C 63.019 60.140,63.056 59.915,63.095 59.708 C 63.175 59.279,63.144 59.256,62.867 59.533 " stroke="none" fill="#7c5cb4" fill-rule="evenodd"></path><path id="path3" d="M35.346 62.278 C 35.329 65.445,35.079 65.167,37.934 65.167 L 40.333 65.167 40.333 62.750 L 40.333 60.333 37.931 60.333 C 36.164 60.333,35.506 60.278,35.444 60.125 C 35.397 60.010,35.354 60.979,35.346 62.278 M60.608 60.372 C 60.503 60.439,59.704 60.763,58.833 61.093 C 57.962 61.422,57.100 61.754,56.917 61.831 C 56.733 61.907,56.461 62.008,56.312 62.055 C 56.114 62.117,56.011 62.444,55.925 63.278 C 55.861 63.904,55.768 64.585,55.719 64.792 L 55.631 65.167 58.982 65.167 C 61.541 65.167,62.338 65.117,62.355 64.958 C 62.395 64.566,62.465 64.083,62.641 63.000 C 62.738 62.404,62.856 61.567,62.903 61.139 L 62.990 60.361 61.895 60.306 C 61.292 60.275,60.713 60.305,60.608 60.372 M67.042 60.291 C 63.684 60.340,63.667 60.342,63.645 60.712 C 63.620 61.148,63.607 61.240,63.265 63.417 C 63.120 64.333,63.001 65.121,63.001 65.167 C 63.000 65.212,64.516 65.212,66.369 65.167 L 69.738 65.083 70.025 63.012 C 70.183 61.873,70.356 60.767,70.409 60.554 C 70.463 60.341,70.486 60.184,70.462 60.205 C 70.437 60.226,68.898 60.265,67.042 60.291 M83.583 60.337 C 80.650 60.385,78.325 60.441,78.417 60.462 C 78.508 60.483,78.781 60.669,79.023 60.875 C 79.265 61.081,79.747 61.475,80.094 61.750 C 80.441 62.025,80.806 62.326,80.904 62.419 C 81.352 62.841,83.310 64.333,83.416 64.333 C 83.482 64.333,83.683 64.521,83.863 64.750 L 84.191 65.167 89.628 65.167 L 95.065 65.167 94.471 64.625 C 93.944 64.145,91.909 62.533,89.681 60.833 L 88.917 60.250 83.583 60.337 M109.424 61.250 C 109.497 61.872,109.472 62.167,109.347 62.167 C 109.246 62.167,108.845 62.306,108.457 62.477 C 107.328 62.973,106.268 63.416,106.172 63.431 C 106.123 63.438,105.896 63.525,105.667 63.624 C 105.438 63.723,104.537 64.107,103.667 64.478 L 102.083 65.151 108.208 65.159 L 114.333 65.167 114.333 62.750 L 114.333 60.333 111.825 60.333 L 109.317 60.333 109.424 61.250 " stroke="none" fill="#745cb4" fill-rule="evenodd"></path><path id="path4" d="M233.000 36.907 C 228.250 37.785,225.231 40.856,224.723 45.330 C 224.665 45.836,224.597 46.362,224.572 46.500 C 224.546 46.637,224.520 47.744,224.513 48.958 L 224.500 51.167 221.917 51.167 L 219.333 51.167 219.333 53.500 L 219.333 55.833 221.917 55.833 L 224.500 55.833 224.500 68.083 L 224.500 80.333 227.333 80.333 L 230.167 80.333 230.167 68.083 L 230.167 55.833 234.500 55.833 L 238.833 55.833 238.833 53.500 L 238.833 51.167 234.481 51.167 L 230.128 51.167 230.207 48.375 C 230.342 43.613,231.356 42.079,234.763 41.486 C 235.878 41.291,239.116 41.363,239.722 41.596 C 239.973 41.692,240.000 41.479,240.000 39.371 C 240.000 37.095,239.991 37.036,239.625 36.933 C 238.779 36.695,234.244 36.677,233.000 36.907 M154.500 58.750 L 154.500 80.333 157.333 80.333 L 160.167 80.333 160.167 74.083 L 160.167 67.833 162.397 67.833 L 164.627 67.833 169.327 74.083 L 174.027 80.333 177.190 80.333 C 179.675 80.333,180.327 80.289,180.231 80.125 C 180.107 79.915,179.037 78.471,172.872 70.194 C 171.006 67.689,169.443 65.546,169.400 65.433 C 169.356 65.320,169.984 64.332,170.794 63.239 C 171.604 62.145,173.758 59.188,175.580 56.667 C 177.402 54.146,179.030 51.928,179.198 51.738 C 179.670 51.203,179.484 51.167,176.240 51.167 C 173.645 51.167,173.188 51.204,173.103 51.426 C 173.048 51.569,172.341 52.562,171.532 53.634 C 170.723 54.706,168.803 57.290,167.265 59.375 L 164.470 63.167 162.318 63.167 L 160.167 63.167 160.167 50.167 L 160.167 37.167 157.333 37.167 L 154.500 37.167 154.500 58.750 M196.333 58.750 L 196.333 80.333 199.167 80.333 L 202.000 80.333 202.000 58.750 L 202.000 37.167 199.167 37.167 L 196.333 37.167 196.333 58.750 M209.500 58.750 L 209.500 80.333 212.333 80.333 L 215.167 80.333 215.167 58.750 L 215.167 37.167 212.333 37.167 L 209.500 37.167 209.500 58.750 M184.761 39.343 C 182.679 39.865,181.677 42.490,182.871 44.295 C 184.296 46.447,188.779 46.108,189.656 43.781 C 190.737 40.914,188.086 38.511,184.761 39.343 M298.890 39.316 C 296.780 39.860,295.825 42.172,296.884 44.173 C 297.980 46.245,302.234 46.282,303.437 44.230 C 305.092 41.406,302.336 38.426,298.890 39.316 M135.417 40.450 C 127.083 41.207,122.412 46.554,123.730 53.829 C 124.595 58.600,127.522 60.924,135.288 63.006 C 141.252 64.604,142.978 65.919,143.267 69.084 C 143.534 72.008,142.121 74.290,139.403 75.322 C 136.369 76.475,128.598 76.000,124.454 74.408 C 124.177 74.302,124.161 74.456,124.204 76.766 L 124.250 79.237 125.560 79.613 C 140.080 83.770,151.314 77.423,148.743 66.515 C 147.715 62.152,144.711 59.904,137.333 57.977 C 131.109 56.351,129.333 54.859,129.333 51.259 C 129.333 45.917,136.426 43.649,145.822 45.987 C 146.587 46.178,147.240 46.333,147.273 46.333 C 147.306 46.333,147.333 45.258,147.333 43.943 L 147.333 41.553 146.708 41.373 C 143.843 40.546,138.849 40.138,135.417 40.450 M279.750 51.018 C 274.041 51.841,271.006 55.060,271.198 60.085 C 271.379 64.812,273.662 66.702,280.750 67.995 C 284.985 68.767,286.152 69.466,286.524 71.458 C 287.386 76.064,281.265 77.876,272.792 75.524 L 271.667 75.211 271.667 77.434 L 271.667 79.657 272.542 79.908 C 275.827 80.850,282.254 81.086,284.917 80.363 C 289.630 79.082,292.070 76.136,291.983 71.833 C 291.883 66.917,289.684 65.042,282.302 63.577 C 277.614 62.646,276.507 61.852,276.507 59.417 C 276.507 55.496,281.710 54.145,289.958 55.925 L 290.500 56.042 290.500 53.881 L 290.500 51.719 289.824 51.517 C 287.858 50.928,282.289 50.652,279.750 51.018 M319.417 50.942 C 312.269 52.081,308.709 57.562,309.045 66.911 C 309.382 76.319,314.032 81.111,322.500 80.779 C 331.001 80.446,335.209 74.924,334.778 64.667 C 334.464 57.190,331.537 52.755,325.917 51.239 C 324.925 50.971,320.501 50.769,319.417 50.942 M352.917 50.941 C 350.680 51.406,348.291 52.519,346.887 53.749 C 346.157 54.389,346.010 54.460,345.932 54.211 C 345.837 53.904,345.509 51.738,345.503 51.375 C 345.501 51.218,344.920 51.167,343.167 51.167 L 340.833 51.167 340.833 65.750 L 340.833 80.333 343.667 80.333 L 346.500 80.333 346.500 69.683 L 346.500 59.033 347.458 58.156 C 350.718 55.172,356.302 55.011,358.094 57.851 C 358.942 59.194,358.994 59.920,358.997 70.542 L 359.000 80.333 361.843 80.333 L 364.686 80.333 364.625 69.458 C 364.557 57.446,364.577 57.684,363.450 55.358 C 361.841 52.036,357.137 50.064,352.917 50.941 M183.333 65.750 L 183.333 80.333 186.167 80.333 L 189.000 80.333 189.000 65.750 L 189.000 51.167 186.167 51.167 L 183.333 51.167 183.333 65.750 M241.733 51.402 C 241.486 52.045,241.782 72.757,242.055 73.917 C 242.691 76.621,244.294 78.823,246.333 79.792 C 250.388 81.718,255.902 80.896,259.357 77.852 C 260.255 77.060,260.226 77.025,260.427 79.125 L 260.543 80.333 262.938 80.333 L 265.333 80.333 265.333 65.750 L 265.333 51.167 262.500 51.167 L 259.667 51.167 259.667 61.844 L 259.667 72.522 258.787 73.401 C 255.620 76.568,249.627 76.600,248.099 73.459 C 247.412 72.047,247.340 70.839,247.337 60.708 L 247.333 51.167 244.578 51.167 C 242.360 51.167,241.805 51.213,241.733 51.402 M297.333 65.750 L 297.333 80.333 300.167 80.333 L 303.000 80.333 303.000 65.750 L 303.000 51.167 300.167 51.167 L 297.333 51.167 297.333 65.750 M324.956 55.910 C 330.412 58.361,330.718 72.881,325.369 75.561 C 322.648 76.924,319.022 76.471,317.114 74.529 C 313.966 71.326,313.811 60.755,316.863 57.416 C 318.788 55.310,322.206 54.674,324.956 55.910 M48.104 84.705 C 48.192 84.969,47.955 84.996,45.181 85.038 L 42.163 85.083 42.582 85.534 C 42.812 85.782,43.000 86.045,43.001 86.118 C 43.004 86.590,46.604 90.521,48.917 92.579 C 65.437 107.277,91.824 104.952,105.613 87.584 C 107.820 84.804,107.927 85.024,104.333 84.966 C 102.683 84.939,101.333 84.971,101.333 85.037 C 101.333 85.167,98.754 87.765,97.812 88.583 C 86.939 98.029,72.309 99.925,59.292 93.576 C 58.948 93.409,58.667 93.192,58.667 93.094 C 58.668 92.997,58.814 91.792,58.993 90.417 C 59.492 86.570,59.545 86.121,59.565 85.583 L 59.583 85.083 56.241 85.000 L 52.899 84.917 52.870 85.333 C 52.834 85.858,52.513 87.754,52.348 88.417 L 52.223 88.917 50.320 87.000 C 49.273 85.946,48.325 84.933,48.213 84.750 C 48.071 84.517,48.038 84.504,48.104 84.705 " stroke="none" fill="#5474bc" fill-rule="evenodd"></path></g></svg>