<svg xmlns="http://www.w3.org/2000/svg" xmlns:xlink="http://www.w3.org/1999/xlink" width="100" zoomAndPan="magnify" viewBox="0 0 75 74.999997" height="100" preserveAspectRatio="xMidYMid meet" version="1.0"><defs><clipPath id="971b4603f0"><path d="M 8 7.5 L 67 7.5 L 67 66 L 8 66 Z M 8 7.5 " clip-rule="nonzero"/></clipPath></defs><g clip-path="url(#971b4603f0)"><path fill="#010101" d="M 62.480469 31.445312 C 63.804688 27.46875 63.347656 23.109375 61.230469 19.492188 C 58.042969 13.945312 51.648438 11.09375 45.398438 12.429688 C 42.621094 9.292969 38.625 7.507812 34.4375 7.53125 C 28.042969 7.515625 22.375 11.640625 20.414062 17.730469 C 16.308594 18.574219 12.769531 21.148438 10.699219 24.792969 C 7.496094 30.328125 8.226562 37.304688 12.507812 42.054688 C 11.1875 46.03125 11.644531 50.382812 13.753906 53.996094 C 16.9375 59.554688 23.34375 62.414062 29.601562 61.074219 C 32.375 64.207031 36.367188 65.992188 40.550781 65.972656 C 46.941406 65.988281 52.613281 61.863281 54.574219 55.773438 C 58.675781 54.929688 62.214844 52.355469 64.285156 48.710938 C 67.5 43.175781 66.769531 36.195312 62.480469 31.445312 Z M 40.550781 62.160156 C 37.992188 62.164062 35.515625 61.261719 33.554688 59.621094 C 33.640625 59.570312 33.808594 59.488281 33.902344 59.421875 L 45.523438 52.703125 C 46.117188 52.367188 46.484375 51.734375 46.476562 51.050781 L 46.476562 34.644531 L 51.386719 37.480469 C 51.441406 37.507812 51.476562 37.558594 51.484375 37.617188 L 51.484375 51.199219 C 51.484375 57.246094 46.589844 62.152344 40.550781 62.160156 Z M 17.058594 52.113281 C 15.777344 49.898438 15.316406 47.300781 15.75 44.777344 C 15.835938 44.828125 15.988281 44.921875 16.097656 44.980469 L 27.71875 51.703125 C 28.308594 52.046875 29.039062 52.046875 29.628906 51.703125 L 43.808594 43.488281 L 43.808594 49.167969 C 43.8125 49.226562 43.789062 49.285156 43.738281 49.320312 L 31.992188 56.109375 C 26.761719 59.121094 20.082031 57.332031 17.058594 52.101562 Z M 14.015625 26.707031 C 15.289062 24.484375 17.304688 22.785156 19.707031 21.902344 L 19.707031 35.734375 C 19.703125 36.417969 20.066406 37.050781 20.660156 37.386719 L 34.84375 45.589844 L 29.914062 48.4375 C 29.867188 48.472656 29.804688 48.476562 29.75 48.453125 L 18.003906 41.660156 C 12.777344 38.632812 10.988281 31.941406 14.003906 26.703125 L 14.015625 26.703125 Z M 54.355469 36.105469 L 40.171875 27.90625 L 45.078125 25.0625 C 45.125 25.03125 45.1875 25.027344 45.242188 25.050781 L 56.988281 31.839844 C 60.660156 33.964844 62.773438 38.027344 62.410156 42.257812 C 62.050781 46.488281 59.277344 50.128906 55.296875 51.597656 L 55.296875 37.769531 C 55.304688 37.082031 54.941406 36.445312 54.347656 36.105469 Z M 59.246094 28.738281 C 59.160156 28.683594 59.007812 28.59375 58.898438 28.53125 L 47.277344 21.8125 C 46.6875 21.464844 45.960938 21.464844 45.367188 21.8125 L 31.183594 30.011719 L 31.183594 24.335938 C 31.183594 24.277344 31.210938 24.222656 31.257812 24.183594 L 43 17.394531 C 46.675781 15.277344 51.242188 15.472656 54.71875 17.902344 C 58.199219 20.332031 59.960938 24.554688 59.242188 28.742188 Z M 28.507812 38.859375 L 23.597656 36.023438 C 23.546875 35.996094 23.511719 35.945312 23.503906 35.886719 L 23.503906 22.304688 C 23.5 18.054688 25.953125 14.1875 29.792969 12.382812 C 33.636719 10.578125 38.171875 11.164062 41.433594 13.882812 C 41.347656 13.933594 41.191406 14.015625 41.082031 14.082031 L 29.464844 20.796875 C 28.871094 21.136719 28.507812 21.769531 28.511719 22.453125 L 28.511719 38.859375 Z M 31.175781 33.101562 L 37.492188 29.445312 L 43.808594 33.101562 L 43.808594 40.402344 L 37.492188 44.054688 L 31.171875 40.402344 Z M 31.175781 33.101562 " fill-opacity="1" fill-rule="nonzero"/></g></svg>